# xmcd
#
# Track frame offsets: 
#        150
#        20611
#        41460
#        65310
#        86985
#        109784
#        132434
#        154109
#        176008
#        195732
#        221270
#        245269
#
# Disc length: 3578 seconds
#
# Revision: 0
# Processed by: cddbd v1.5.2PL0 Copyright (c) Steve Scherf et al.
# Submitted via: ExactAudioCopyFreeDBPlugin 1.0
#
DISCID=a20df80c
DTITLE=晓丹 - DTSES春光美II
DYEAR=2009
DGENRE=DTSES
TTITLE0=燕衔泥
TTITLE1=北国之春
TTITLE2=得到你的人却得不到你的心
TTITLE3=甘心情愿
TTITLE4=飞蛾扑火
TTITLE5=在我心里从此永远有个你
TTITLE6=爱不在就放手
TTITLE7=久别的人
TTITLE8=携手同游人间
TTITLE9=一天到晚游泳的鱼
TTITLE10=笑红尘
TTITLE11=明天会更好
EXTD=
EXTT0=
EXTT1=
EXTT2=
EXTT3=
EXTT4=
EXTT5=
EXTT6=
EXTT7=
EXTT8=
EXTT9=
EXTT10=
EXTT11=
PLAYORDER=
